<?xml version="1.0" encoding="utf-8"?>
<!-- Generator: Adobe Illustrator 16.0.0, SVG Export Plug-In . SVG Version: 6.00 Build 0)  -->
<!DOCTYPE svg PUBLIC "-//W3C//DTD SVG 1.1//EN" "http://www.w3.org/Graphics/SVG/1.1/DTD/svg11.dtd">
<svg version="1.1" id="Layer_1" xmlns="http://www.w3.org/2000/svg" xmlns:xlink="http://www.w3.org/1999/xlink" x="0px" y="0px"
	 width="200px" height="100px" viewBox="0 0 200 100" enable-background="new 0 0 200 100" xml:space="preserve">
<path fill="#FD9436" d="M32.465,51.92c2.752-7.975,4.345-18.117,3.763-31.016c0,0-1.146,13.391-6.513,27.778
	c-4.085-4.254-9.556-7.752-16.886-9.659c0,0,7.104,5.125,14.518,15.41c-4.911,10.84-12.429,21.314-23.862,26.179
	c0,0,16.829-2.906,26.401-22.455c4.597,7.123,9.016,16.24,11.621,27.377C41.506,85.534,43.099,66.076,32.465,51.92z"/>
<circle fill="#FD9436" cx="24.814" cy="35.17" r="3.853"/>
<g>
	<path fill="#383838" d="M46.533,54.121v-2.012h5.506c1.218,0,2.091-0.158,2.621-0.477c0.741-0.459,1.112-1.138,1.112-2.038
		c0-1.076-0.662-1.932-1.985-2.567l-4.395-2.091c-1.941-0.917-2.912-2.285-2.912-4.103c0-2.876,1.817-4.315,5.453-4.315h5.374v2.012
		h-4.738c-1.376,0-2.303,0.168-2.779,0.503c-0.583,0.424-0.874,1.042-0.874,1.853c0,0.971,0.608,1.738,1.826,2.303l4.633,2.144
		c1.888,0.883,2.833,2.294,2.833,4.235c0,3.035-1.827,4.553-5.48,4.553H46.533z"/>
	<path fill="#383838" d="M63.66,54.121h-2.33V36.518h2.33v7.359h2.065c0.847,0,1.447-0.141,1.8-0.423
		c0.512-0.406,0.953-1.067,1.324-1.985l2.012-4.95h2.488l-2.25,5.321c-0.353,0.83-0.662,1.416-0.926,1.76
		c-0.265,0.344-0.645,0.64-1.139,0.887c1.288,0.318,2.232,0.883,2.833,1.694c0.424,0.547,0.697,1.174,0.821,1.879
		c0.07,0.423,0.106,1.112,0.106,2.065v2.091c0,0.724,0.026,1.358,0.079,1.905h-2.303c-0.071-0.723-0.106-1.297-0.106-1.721v-2.117
		c0-1.553-0.248-2.621-0.741-3.203c-0.671-0.794-1.677-1.191-3.018-1.191H63.66V54.121z"/>
	<path fill="#383838" d="M78.907,54.121h-2.33V36.518h2.33V54.121z"/>
	<path fill="#383838" d="M92.089,52.109v2.012H88.86c-2.083,0-3.587-0.477-4.513-1.43c-0.927-0.952-1.39-2.488-1.39-4.605V36.518
		h2.329v11.091c0,1.959,0.494,3.274,1.482,3.944c0.53,0.37,1.491,0.556,2.886,0.556H92.089z"/>
	<path fill="#383838" d="M103.764,52.109v2.012h-3.229c-2.083,0-3.587-0.477-4.514-1.43c-0.927-0.952-1.39-2.488-1.39-4.605V36.518
		h2.329v11.091c0,1.959,0.494,3.274,1.482,3.944c0.529,0.37,1.491,0.556,2.886,0.556H103.764z"/>
	<path fill="#383838" d="M105.457,54.121v-2.012h5.506c1.218,0,2.092-0.158,2.621-0.477c0.741-0.459,1.111-1.138,1.111-2.038
		c0-1.076-0.661-1.932-1.985-2.567l-4.394-2.091c-1.941-0.917-2.912-2.285-2.912-4.103c0-2.876,1.817-4.315,5.453-4.315h5.374v2.012
		h-4.738c-1.377,0-2.304,0.168-2.78,0.503c-0.582,0.424-0.873,1.042-0.873,1.853c0,0.971,0.608,1.738,1.826,2.303l4.633,2.144
		c1.888,0.883,2.832,2.294,2.832,4.235c0,3.035-1.826,4.553-5.479,4.553H105.457z"/>
	<path fill="#383838" d="M127.587,44.248h9.266c0,1.959-0.194,3.477-0.583,4.553c-0.617,1.694-1.693,3.063-3.229,4.104
		c-1.535,1.041-3.238,1.562-5.108,1.562c-2.56,0-4.73-0.892-6.513-2.674s-2.673-3.953-2.673-6.512s0.882-4.716,2.646-6.473
		c1.765-1.756,3.936-2.634,6.513-2.634c2.717,0,5.029,0.936,6.936,2.806l-1.668,1.562c-1.535-1.482-3.273-2.224-5.215-2.224
		s-3.557,0.658-4.845,1.972c-1.288,1.315-1.933,2.961-1.933,4.937c0,2.012,0.649,3.697,1.946,5.056
		c1.297,1.359,2.907,2.038,4.831,2.038c1.218,0,2.333-0.295,3.349-0.887c1.015-0.591,1.795-1.398,2.343-2.422
		c0.424-0.794,0.67-1.712,0.741-2.753h-6.804V44.248z"/>
	<path fill="#383838" d="M142.041,54.121h-2.329V42.5c0-1.994,0.44-3.521,1.323-4.58c1.059-1.271,2.523-1.906,4.395-1.906
		c1.553,0,2.858,0.477,3.917,1.429c1.06,0.953,1.589,2.127,1.589,3.521c0,1.747-0.865,3.115-2.595,4.103
		c0.988,0.335,1.717,0.847,2.185,1.535c0.467,0.688,0.701,1.836,0.701,3.441v4.076h-2.329v-3.388c0-1.5-0.168-2.515-0.503-3.044
		c-0.548-0.882-1.563-1.324-3.045-1.324h-2.355v-2.012h1.694c1.199,0,2.14-0.273,2.819-0.821c0.679-0.546,1.019-1.314,1.019-2.303
		c0-0.882-0.291-1.615-0.873-2.197c-0.583-0.583-1.315-0.874-2.197-0.874c-1.254,0-2.188,0.512-2.807,1.535
		c-0.406,0.671-0.608,1.748-0.608,3.23V54.121z"/>
	<path fill="#383838" d="M162.662,36.174c2.559,0,4.721,0.892,6.486,2.674c1.764,1.783,2.646,3.962,2.646,6.538
		c0,2.471-0.896,4.602-2.687,6.394c-1.791,1.791-3.931,2.687-6.419,2.687c-2.524,0-4.678-0.896-6.46-2.687
		c-1.782-1.792-2.673-3.949-2.673-6.473c0-2.523,0.891-4.676,2.673-6.459C158.012,37.065,160.156,36.174,162.662,36.174z
		 M162.716,38.318c-1.871,0-3.459,0.68-4.766,2.039c-1.306,1.359-1.959,3.009-1.959,4.95c0,1.924,0.657,3.574,1.973,4.95
		c1.314,1.376,2.89,2.064,4.726,2.064c1.817,0,3.384-0.688,4.698-2.064c1.314-1.376,1.972-3.009,1.972-4.897
		c0-1.959-0.648-3.622-1.945-4.99S164.551,38.318,162.716,38.318z"/>
	<path fill="#383838" d="M193.104,36.518h2.33V48.06c0,1.183-0.093,2.096-0.278,2.74s-0.525,1.25-1.019,1.814
		c-1.077,1.234-2.533,1.853-4.368,1.853c-1.323,0-2.444-0.353-3.362-1.06c-0.564-0.423-1.059-1.049-1.482-1.879
		c-1.059,1.959-2.603,2.938-4.632,2.938c-1.659,0-3.001-0.521-4.024-1.562s-1.535-2.418-1.535-4.13V36.518h2.33v11.7
		c0,1.395,0.281,2.4,0.847,3.018c0.652,0.724,1.482,1.085,2.488,1.085c1.165,0,2.082-0.468,2.753-1.403
		c0.459-0.635,0.688-1.553,0.688-2.753V36.518h2.329v11.674c0,1.306,0.292,2.294,0.874,2.964c0.671,0.777,1.544,1.165,2.621,1.165
		c1.271,0,2.231-0.493,2.885-1.482c0.371-0.564,0.556-1.509,0.556-2.832V36.518z"/>
</g>
<g>
	<path fill="#FD9436" d="M46.871,66.919l0.127-1.681l0.092-1.944l0.057-1.769v-0.598c0.723,0.007,1.476,0.009,2.261,0.009
		l0.842-0.004l1.269-0.005l-0.053,0.948l-0.417-0.021c-0.114-0.006-0.272-0.011-0.474-0.014c-0.202-0.003-0.408-0.004-0.619-0.004
		c-0.456,0-0.751,0.001-0.884,0.002c-0.133,0.002-0.334,0.007-0.604,0.016l-0.071,1.558c0.401,0.009,0.805,0.014,1.212,0.014
		c0.281,0,0.755-0.009,1.423-0.026c-0.023,0.266-0.044,0.585-0.062,0.956c-0.781-0.009-1.229-0.013-1.343-0.013
		c-0.345,0-0.775,0.009-1.29,0.026l-0.071,1.642l0.483,0.004c0.14,0,0.462-0.003,0.965-0.009l0.953-0.018l0.637-0.03
		c-0.029,0.339-0.05,0.659-0.062,0.961c-0.761-0.006-1.447-0.009-2.059-0.009l-1.444,0.005L46.871,66.919z"/>
	<path fill="#FD9436" d="M59.611,66.919c-0.243-0.006-0.432-0.009-0.566-0.009c-0.146,0-0.349,0.003-0.606,0.009l0.039-0.764
		c-0.128,0.167-0.239,0.296-0.331,0.387c-0.092,0.09-0.207,0.175-0.342,0.252c-0.136,0.077-0.283,0.135-0.441,0.173
		c-0.158,0.038-0.322,0.058-0.492,0.058c-0.281,0-0.544-0.052-0.79-0.153c-0.246-0.103-0.455-0.247-0.627-0.433
		c-0.173-0.186-0.3-0.407-0.382-0.663c-0.082-0.256-0.123-0.522-0.123-0.801c0-0.383,0.073-0.757,0.219-1.121
		c0.146-0.364,0.347-0.659,0.601-0.885c0.254-0.225,0.542-0.385,0.864-0.479c0.321-0.093,0.667-0.14,1.035-0.14
		c0.266,0,0.567,0.024,0.903,0.074c0.022-0.38,0.033-0.779,0.033-1.198v-0.299c0.275,0.007,0.486,0.009,0.632,0.009
		c0.19,0,0.404-0.002,0.642-0.009c-0.064,0.744-0.125,1.755-0.182,3.035C59.64,65.243,59.611,66.229,59.611,66.919z M58.527,63.259
		c-0.22-0.059-0.43-0.088-0.632-0.088c-0.231,0-0.452,0.032-0.663,0.097c-0.21,0.064-0.397,0.174-0.56,0.329
		c-0.162,0.155-0.288,0.354-0.375,0.597c-0.088,0.243-0.132,0.478-0.132,0.702c0,0.226,0.04,0.432,0.121,0.619
		s0.206,0.335,0.375,0.443c0.17,0.108,0.361,0.162,0.575,0.162c0.161,0,0.307-0.028,0.438-0.086c0.132-0.057,0.252-0.145,0.36-0.263
		c0.108-0.119,0.2-0.271,0.274-0.459s0.128-0.436,0.16-0.746C58.49,64.338,58.509,63.902,58.527,63.259z"/>
	<path fill="#FD9436" d="M68.011,66.919c-0.257-0.006-0.455-0.009-0.593-0.009c-0.173,0-0.369,0.003-0.588,0.009l0.008-0.729
		c-0.082,0.123-0.153,0.222-0.215,0.296c-0.062,0.075-0.142,0.148-0.241,0.22c-0.1,0.071-0.208,0.129-0.325,0.171
		c-0.117,0.043-0.251,0.078-0.402,0.105c-0.15,0.028-0.311,0.042-0.48,0.042c-0.328,0-0.613-0.048-0.855-0.143
		c-0.243-0.096-0.435-0.239-0.577-0.433c-0.142-0.193-0.212-0.47-0.212-0.829v-0.093l0.071-1.132l0.067-1.492
		c0.003-0.12,0.004-0.27,0.004-0.448c0.277,0.006,0.495,0.009,0.653,0.009c0.167,0,0.368-0.003,0.605-0.009l-0.146,2.002
		c-0.009,0.155-0.016,0.286-0.02,0.393s-0.006,0.184-0.006,0.23c0,0.211,0.031,0.386,0.094,0.524s0.172,0.245,0.329,0.318
		s0.324,0.109,0.502,0.109c0.17,0,0.331-0.032,0.482-0.097c0.138-0.059,0.255-0.141,0.353-0.245
		c0.098-0.105,0.181-0.248,0.248-0.426c0.05-0.129,0.088-0.308,0.114-0.536c0.021-0.16,0.04-0.437,0.057-0.829
		c0.024-0.474,0.041-0.955,0.05-1.444c0.29,0.006,0.511,0.009,0.664,0.009c0.173,0,0.368-0.003,0.584-0.009
		c-0.035,0.419-0.071,0.941-0.109,1.569s-0.064,1.146-0.079,1.554S68.02,66.434,68.011,66.919z"/>
	<path fill="#FD9436" d="M75.383,65.905c-0.015,0.12-0.037,0.256-0.066,0.408s-0.06,0.341-0.092,0.566
		c-0.418,0.096-0.831,0.145-1.238,0.145c-0.237,0-0.465-0.022-0.685-0.066c-0.219-0.043-0.423-0.122-0.612-0.234
		c-0.188-0.112-0.354-0.261-0.498-0.445s-0.251-0.407-0.323-0.67c-0.072-0.262-0.107-0.531-0.107-0.81
		c0-0.368,0.06-0.723,0.178-1.062c0.119-0.34,0.292-0.617,0.52-0.832c0.229-0.215,0.482-0.361,0.762-0.438
		c0.279-0.078,0.59-0.116,0.933-0.116c0.19,0,0.386,0.011,0.588,0.032c0.202,0.022,0.44,0.066,0.715,0.134l0.066,0.962
		c-0.435-0.149-0.815-0.225-1.139-0.225c-0.198,0-0.386,0.034-0.563,0.102s-0.329,0.173-0.456,0.318
		c-0.127,0.145-0.218,0.312-0.271,0.502c-0.054,0.19-0.081,0.385-0.081,0.584c0,0.278,0.043,0.519,0.129,0.722
		c0.086,0.203,0.234,0.36,0.445,0.472s0.45,0.167,0.718,0.167c0.132,0,0.292-0.017,0.48-0.051
		C74.974,66.036,75.173,65.981,75.383,65.905z"/>
	<path fill="#FD9436" d="M79.403,63.435c0.041-0.211,0.066-0.358,0.077-0.443s0.029-0.214,0.055-0.387
		c0.397-0.094,0.749-0.159,1.053-0.197c0.304-0.038,0.598-0.057,0.882-0.057c0.322,0,0.618,0.037,0.887,0.111
		c0.269,0.075,0.48,0.194,0.632,0.357c0.152,0.164,0.229,0.399,0.229,0.707c0,0.167-0.023,0.592-0.07,1.275
		c-0.046,0.683-0.074,1.389-0.083,2.117c-0.223-0.006-0.427-0.009-0.615-0.009c-0.179,0-0.388,0.003-0.628,0.009
		c0.039-0.354,0.07-0.764,0.093-1.229l0.058-1.093c-0.111,0.073-0.196,0.124-0.255,0.153s-0.125,0.057-0.198,0.081
		c-0.073,0.025-0.202,0.063-0.387,0.114c-0.185,0.051-0.332,0.096-0.443,0.134s-0.212,0.081-0.301,0.13
		c-0.089,0.048-0.165,0.102-0.227,0.162c-0.062,0.06-0.106,0.123-0.134,0.188s-0.042,0.137-0.042,0.213
		c0,0.123,0.036,0.229,0.108,0.318c0.071,0.089,0.162,0.151,0.27,0.187c0.108,0.035,0.236,0.053,0.382,0.053
		c0.094,0,0.192-0.008,0.296-0.022s0.244-0.051,0.419-0.109c-0.061,0.167-0.133,0.415-0.215,0.746
		c-0.208,0.035-0.373,0.057-0.496,0.065c-0.123,0.009-0.237,0.014-0.342,0.014c-0.369,0-0.671-0.05-0.908-0.149
		c-0.237-0.1-0.412-0.258-0.524-0.474c-0.113-0.217-0.169-0.435-0.169-0.654c0-0.126,0.021-0.25,0.065-0.373
		s0.108-0.235,0.193-0.338s0.195-0.201,0.33-0.296c0.134-0.096,0.329-0.188,0.584-0.276c0.254-0.09,0.591-0.18,1.01-0.271
		c0.111-0.023,0.227-0.052,0.347-0.086c0.12-0.033,0.216-0.066,0.288-0.099s0.134-0.073,0.187-0.125
		c0.053-0.051,0.092-0.104,0.117-0.16c0.024-0.056,0.037-0.112,0.037-0.171c0-0.114-0.037-0.211-0.112-0.29s-0.171-0.134-0.29-0.164
		c-0.119-0.031-0.25-0.046-0.393-0.046C80.636,63.053,80.047,63.18,79.403,63.435z"/>
	<path fill="#FD9436" d="M89.686,66.002c-0.035,0.161-0.091,0.459-0.167,0.896c-0.246,0.055-0.439,0.09-0.579,0.104
		c-0.141,0.015-0.272,0.022-0.395,0.022c-0.217,0-0.411-0.021-0.582-0.062c-0.171-0.041-0.313-0.113-0.424-0.218
		c-0.111-0.104-0.187-0.225-0.226-0.364c-0.04-0.139-0.059-0.282-0.059-0.432c0-0.038,0.001-0.09,0.004-0.154
		c0.003-0.063,0.015-0.271,0.035-0.623l0.101-1.825h-0.632c0.015-0.176,0.028-0.458,0.04-0.848h0.661
		c0.018-0.169,0.035-0.457,0.052-0.864l0.519-0.101c0.108-0.021,0.318-0.069,0.628-0.146c-0.021,0.396-0.033,0.766-0.036,1.11h1.115
		c-0.021,0.396-0.031,0.678-0.031,0.848h-1.119c-0.062,1.19-0.092,1.88-0.092,2.067c0,0.181,0.02,0.321,0.06,0.421
		s0.103,0.171,0.191,0.215c0.087,0.044,0.181,0.066,0.281,0.066c0.073,0,0.15-0.006,0.23-0.018S89.483,66.055,89.686,66.002z"/>
	<path fill="#FD9436" d="M93.073,66.919c0.044-0.438,0.076-0.806,0.094-1.102c0.029-0.468,0.056-1.008,0.078-1.619
		c0.022-0.612,0.038-1.192,0.047-1.743c0.285,0.006,0.499,0.009,0.642,0.009c0.131,0,0.343-0.003,0.637-0.009
		c-0.04,0.51-0.071,0.995-0.096,1.458c-0.024,0.462-0.042,0.991-0.053,1.588c-0.011,0.598-0.017,1.069-0.017,1.418
		c-0.268-0.006-0.481-0.009-0.642-0.009C93.61,66.91,93.38,66.913,93.073,66.919z M93.313,61.691
		c0.012-0.301,0.018-0.532,0.018-0.693v-0.14c0.266,0.006,0.483,0.009,0.649,0.009c0.229,0,0.44-0.003,0.637-0.009
		c-0.01,0.072-0.016,0.156-0.018,0.25l-0.022,0.583c-0.223-0.006-0.427-0.009-0.615-0.009
		C93.775,61.683,93.559,61.686,93.313,61.691z"/>
	<path fill="#FD9436" d="M100.656,62.351c0.336,0,0.659,0.05,0.968,0.151c0.309,0.101,0.57,0.25,0.785,0.447
		s0.377,0.438,0.485,0.725c0.108,0.285,0.162,0.586,0.162,0.901c0,0.334-0.057,0.655-0.171,0.966
		c-0.114,0.31-0.279,0.578-0.496,0.806c-0.217,0.227-0.486,0.396-0.81,0.509s-0.668,0.169-1.034,0.169
		c-0.339,0-0.662-0.051-0.968-0.151c-0.306-0.102-0.566-0.253-0.783-0.454c-0.217-0.202-0.381-0.448-0.493-0.737
		c-0.113-0.29-0.169-0.593-0.169-0.909c0-0.321,0.051-0.629,0.153-0.921c0.103-0.293,0.263-0.554,0.48-0.781
		c0.218-0.229,0.497-0.405,0.836-0.531C99.942,62.413,100.293,62.351,100.656,62.351z M100.656,63.254
		c-0.254,0-0.48,0.063-0.681,0.187c-0.199,0.125-0.349,0.31-0.446,0.556s-0.146,0.514-0.146,0.803c0,0.255,0.04,0.481,0.121,0.681
		c0.08,0.199,0.211,0.359,0.394,0.482c0.182,0.123,0.398,0.185,0.649,0.185c0.256,0,0.481-0.063,0.675-0.19
		c0.194-0.128,0.34-0.315,0.438-0.563s0.146-0.52,0.146-0.818c0-0.243-0.038-0.464-0.113-0.662
		c-0.076-0.199-0.204-0.358-0.383-0.479C101.13,63.314,100.912,63.254,100.656,63.254z"/>
	<path fill="#FD9436" d="M106.563,66.919c0.066-0.664,0.123-1.41,0.168-2.238s0.07-1.569,0.076-2.226
		c0.27,0.006,0.485,0.009,0.646,0.009c0.19,0,0.393-0.003,0.605-0.009l-0.049,0.746c0.091-0.128,0.171-0.23,0.239-0.307
		c0.069-0.076,0.157-0.15,0.264-0.224c0.107-0.073,0.221-0.132,0.343-0.176c0.121-0.044,0.257-0.079,0.408-0.105
		c0.15-0.026,0.308-0.039,0.472-0.039c0.261,0,0.51,0.032,0.748,0.099c0.239,0.065,0.432,0.17,0.577,0.313
		c0.146,0.144,0.243,0.3,0.29,0.47s0.07,0.35,0.07,0.54c0,0.079-0.005,0.204-0.013,0.377l-0.091,1.918
		c-0.012,0.267-0.02,0.55-0.021,0.852c-0.232-0.006-0.43-0.009-0.594-0.009c-0.223,0-0.447,0.003-0.673,0.009
		c0.023-0.255,0.053-0.698,0.089-1.332c0.035-0.634,0.053-1.053,0.053-1.258c0-0.23-0.037-0.416-0.11-0.557
		c-0.072-0.141-0.186-0.247-0.34-0.32c-0.153-0.073-0.319-0.11-0.497-0.11c-0.176,0-0.34,0.034-0.491,0.102
		c-0.152,0.067-0.284,0.165-0.395,0.294c-0.117,0.132-0.208,0.294-0.272,0.487c-0.067,0.204-0.117,0.542-0.148,1.014
		c-0.03,0.418-0.054,0.979-0.071,1.681c-0.226-0.006-0.429-0.009-0.61-0.009C107.051,66.91,106.826,66.913,106.563,66.919z"/>
	<path fill="#FD9436" d="M120.237,66.919c0.089-0.872,0.154-1.874,0.199-3.006c0.044-1.133,0.065-2.128,0.065-2.985
		c0.352,0.007,0.646,0.009,0.882,0.009c0.255,0,0.504-0.004,0.748-0.013c0.245-0.009,0.503-0.013,0.774-0.013
		c0.34,0,0.644,0.019,0.911,0.057s0.505,0.126,0.713,0.264c0.207,0.137,0.361,0.304,0.463,0.5c0.101,0.196,0.151,0.424,0.151,0.685
		c0,0.164-0.02,0.319-0.058,0.468c-0.038,0.147-0.094,0.286-0.169,0.417c-0.074,0.13-0.163,0.244-0.266,0.342
		c-0.102,0.099-0.204,0.176-0.305,0.232c-0.101,0.058-0.216,0.106-0.345,0.147s-0.301,0.091-0.518,0.149l0.299,0.579
		c0.096,0.185,0.279,0.515,0.548,0.992l0.443,0.776c0.023,0.041,0.094,0.174,0.211,0.399c-0.358-0.006-0.594-0.009-0.709-0.009
		c-0.141,0-0.389,0.003-0.743,0.009l-0.486-1.167c-0.085-0.179-0.188-0.39-0.307-0.633l-0.53-1.066
		c-0.053-0.1-0.126-0.248-0.219-0.447c0.195,0.035,0.374,0.053,0.535,0.053c0.252,0,0.481-0.041,0.689-0.123s0.368-0.208,0.479-0.38
		c0.11-0.171,0.166-0.357,0.166-0.56c0-0.123-0.023-0.236-0.072-0.342c-0.048-0.105-0.129-0.195-0.243-0.268
		c-0.114-0.073-0.25-0.12-0.408-0.141s-0.316-0.031-0.474-0.031c-0.088,0-0.208,0.002-0.36,0.005s-0.34,0.004-0.562,0.004
		l-0.078,1.804l-0.083,3.292l-0.681-0.009C120.793,66.91,120.571,66.913,120.237,66.919z"/>
	<path fill="#FD9436" d="M132.608,65.923c-0.038,0.173-0.092,0.482-0.162,0.931c-0.316,0.066-0.582,0.112-0.799,0.136
		s-0.435,0.035-0.654,0.035c-0.383,0-0.727-0.038-1.029-0.114s-0.568-0.216-0.796-0.419c-0.229-0.203-0.396-0.452-0.505-0.747
		s-0.162-0.605-0.162-0.93c0-0.359,0.063-0.708,0.188-1.046s0.302-0.613,0.528-0.829c0.228-0.215,0.485-0.366,0.775-0.455
		c0.289-0.09,0.592-0.134,0.908-0.134c0.298,0,0.582,0.037,0.852,0.111c0.269,0.074,0.495,0.196,0.678,0.366
		c0.183,0.169,0.323,0.373,0.422,0.61c0.098,0.238,0.146,0.503,0.146,0.795c0,0.138-0.015,0.279-0.044,0.426l-3.217,0.004
		c-0.006,0.108-0.009,0.194-0.009,0.259c0,0.196,0.033,0.376,0.101,0.54s0.166,0.303,0.294,0.417
		c0.129,0.114,0.283,0.198,0.461,0.252c0.179,0.055,0.354,0.081,0.527,0.081c0.201,0,0.42-0.021,0.655-0.065
		C132.004,66.103,132.284,66.028,132.608,65.923z M129.773,64.149l2.054,0.005c0-0.141-0.004-0.243-0.013-0.311
		s-0.029-0.144-0.06-0.229s-0.072-0.162-0.125-0.228s-0.114-0.12-0.185-0.164c-0.07-0.043-0.151-0.077-0.243-0.101
		c-0.093-0.022-0.191-0.034-0.297-0.034c-0.122,0-0.242,0.019-0.357,0.057s-0.222,0.093-0.318,0.166
		c-0.097,0.072-0.175,0.154-0.234,0.245c-0.061,0.09-0.104,0.177-0.134,0.26S129.803,64.01,129.773,64.149z"/>
	<path fill="#FD9436" d="M136.448,66.919c0.045-0.438,0.076-0.806,0.094-1.102c0.03-0.468,0.056-1.008,0.078-1.619
		c0.022-0.612,0.038-1.192,0.047-1.743c0.285,0.006,0.499,0.009,0.642,0.009c0.131,0,0.343-0.003,0.637-0.009
		c-0.04,0.51-0.071,0.995-0.096,1.458c-0.023,0.462-0.041,0.991-0.053,1.588c-0.012,0.598-0.017,1.069-0.017,1.418
		c-0.267-0.006-0.48-0.009-0.642-0.009C136.986,66.91,136.756,66.913,136.448,66.919z M136.689,61.691
		c0.012-0.301,0.018-0.532,0.018-0.693v-0.14c0.266,0.006,0.482,0.009,0.649,0.009c0.228,0,0.44-0.003,0.636-0.009
		c-0.009,0.072-0.015,0.156-0.018,0.25l-0.021,0.583c-0.223-0.006-0.428-0.009-0.614-0.009
		C137.151,61.683,136.935,61.686,136.689,61.691z"/>
	<path fill="#FD9436" d="M141.64,66.919c0.041-0.497,0.084-1.24,0.13-2.229c0.045-0.989,0.068-1.733,0.068-2.234
		c0.248,0.006,0.45,0.009,0.605,0.009c0.178,0,0.371-0.003,0.579-0.009l-0.034,0.707c0.094-0.138,0.18-0.249,0.257-0.336
		c0.078-0.086,0.178-0.166,0.301-0.239s0.267-0.131,0.433-0.173c0.165-0.043,0.335-0.063,0.511-0.063
		c0.132,0,0.259,0.012,0.382,0.037c0.123,0.024,0.234,0.06,0.336,0.105c0.101,0.045,0.187,0.097,0.259,0.155
		c0.071,0.059,0.132,0.124,0.182,0.195c0.05,0.072,0.104,0.178,0.162,0.318c0.064-0.103,0.124-0.188,0.178-0.257
		c0.055-0.068,0.127-0.14,0.218-0.213s0.191-0.135,0.303-0.185s0.236-0.088,0.375-0.116c0.139-0.027,0.283-0.041,0.433-0.041
		c0.254,0,0.494,0.041,0.72,0.125c0.225,0.083,0.401,0.215,0.53,0.395s0.193,0.403,0.193,0.67c0,0.14-0.01,0.347-0.03,0.618
		c-0.021,0.272-0.045,0.716-0.074,1.332c-0.028,0.616-0.045,1.092-0.048,1.429c-0.214-0.006-0.402-0.009-0.566-0.009
		c-0.193,0-0.421,0.003-0.682,0.009c0.026-0.377,0.052-0.772,0.075-1.185l0.053-1.006c0.015-0.254,0.022-0.469,0.022-0.645
		c0-0.209-0.033-0.367-0.099-0.475c-0.066-0.107-0.149-0.184-0.251-0.229c-0.101-0.046-0.214-0.068-0.34-0.068
		c-0.132,0-0.251,0.024-0.358,0.075c-0.106,0.05-0.206,0.131-0.298,0.242c-0.093,0.111-0.163,0.242-0.213,0.391
		s-0.087,0.356-0.109,0.624c-0.023,0.268-0.042,0.619-0.057,1.056l-0.03,1.22c-0.243-0.006-0.445-0.009-0.606-0.009
		s-0.376,0.003-0.646,0.009c0.02-0.226,0.049-0.687,0.087-1.383s0.057-1.166,0.057-1.408c0-0.129-0.01-0.238-0.03-0.327
		s-0.063-0.174-0.125-0.255c-0.063-0.08-0.137-0.14-0.222-0.178s-0.183-0.057-0.294-0.057c-0.204,0-0.385,0.067-0.539,0.202
		c-0.155,0.134-0.269,0.314-0.34,0.539c-0.072,0.226-0.124,0.664-0.155,1.314c-0.032,0.651-0.048,1.169-0.048,1.552
		c-0.269-0.006-0.472-0.009-0.609-0.009C142.129,66.91,141.914,66.913,141.64,66.919z"/>
	<path fill="#FD9436" d="M152.787,63.435c0.041-0.211,0.067-0.358,0.077-0.443c0.011-0.085,0.028-0.214,0.055-0.387
		c0.398-0.094,0.749-0.159,1.054-0.197c0.304-0.038,0.599-0.057,0.882-0.057c0.322,0,0.617,0.037,0.887,0.111
		c0.27,0.075,0.479,0.194,0.632,0.357c0.152,0.164,0.229,0.399,0.229,0.707c0,0.167-0.023,0.592-0.07,1.275
		c-0.046,0.683-0.073,1.389-0.082,2.117c-0.223-0.006-0.428-0.009-0.615-0.009c-0.179,0-0.388,0.003-0.628,0.009
		c0.038-0.354,0.069-0.764,0.093-1.229l0.058-1.093c-0.111,0.073-0.196,0.124-0.255,0.153s-0.124,0.057-0.197,0.081
		c-0.073,0.025-0.202,0.063-0.387,0.114c-0.185,0.051-0.332,0.096-0.443,0.134s-0.212,0.081-0.301,0.13
		c-0.09,0.048-0.165,0.102-0.227,0.162c-0.062,0.06-0.106,0.123-0.134,0.188c-0.028,0.065-0.042,0.137-0.042,0.213
		c0,0.123,0.036,0.229,0.107,0.318c0.072,0.089,0.162,0.151,0.271,0.187c0.107,0.035,0.235,0.053,0.382,0.053
		c0.094,0,0.192-0.008,0.296-0.022s0.243-0.051,0.419-0.109c-0.062,0.167-0.133,0.415-0.215,0.746
		c-0.208,0.035-0.373,0.057-0.496,0.065s-0.237,0.014-0.342,0.014c-0.369,0-0.672-0.05-0.909-0.149
		c-0.236-0.1-0.411-0.258-0.524-0.474c-0.112-0.217-0.169-0.435-0.169-0.654c0-0.126,0.022-0.25,0.066-0.373
		s0.108-0.235,0.193-0.338c0.084-0.103,0.194-0.201,0.329-0.296c0.135-0.096,0.329-0.188,0.584-0.276
		c0.255-0.09,0.591-0.18,1.01-0.271c0.111-0.023,0.228-0.052,0.347-0.086c0.12-0.033,0.217-0.066,0.288-0.099
		s0.134-0.073,0.187-0.125c0.053-0.051,0.092-0.104,0.116-0.16c0.025-0.056,0.038-0.112,0.038-0.171c0-0.114-0.038-0.211-0.112-0.29
		c-0.075-0.079-0.172-0.134-0.29-0.164c-0.118-0.031-0.25-0.046-0.394-0.046C154.021,63.053,153.432,63.18,152.787,63.435z"/>
	<path fill="#FD9436" d="M160.647,67.845c0.658,0.217,1.229,0.325,1.712,0.325c0.184,0,0.358-0.022,0.522-0.068
		c0.163-0.045,0.301-0.11,0.412-0.196c0.111-0.087,0.197-0.203,0.259-0.351s0.103-0.318,0.123-0.513s0.036-0.488,0.048-0.882
		c-0.113,0.154-0.216,0.275-0.307,0.361c-0.091,0.087-0.2,0.164-0.327,0.232c-0.127,0.069-0.275,0.125-0.445,0.167
		c-0.17,0.043-0.349,0.063-0.535,0.063c-0.258,0-0.502-0.04-0.733-0.12c-0.231-0.081-0.437-0.207-0.616-0.38
		c-0.181-0.173-0.317-0.39-0.411-0.651s-0.14-0.535-0.14-0.818c0-0.407,0.076-0.792,0.23-1.154c0.153-0.363,0.378-0.661,0.676-0.896
		c0.297-0.234,0.614-0.396,0.952-0.483c0.338-0.087,0.713-0.131,1.126-0.131c0.228,0,0.486,0.014,0.776,0.041
		c0.29,0.028,0.673,0.084,1.15,0.169l-0.102,1.391l-0.092,1.741l-0.035,1.574c-0.009,0.179-0.031,0.351-0.066,0.516
		s-0.091,0.314-0.167,0.447s-0.172,0.251-0.289,0.354c-0.117,0.102-0.25,0.185-0.397,0.247c-0.147,0.063-0.331,0.115-0.549,0.156
		s-0.451,0.062-0.699,0.062c-0.267,0-0.569-0.018-0.909-0.053c-0.339-0.035-0.709-0.102-1.11-0.198L160.647,67.845z M163.852,63.333
		c-0.254-0.053-0.49-0.079-0.706-0.079c-0.381,0-0.695,0.07-0.944,0.209c-0.249,0.14-0.44,0.343-0.575,0.609
		s-0.202,0.549-0.202,0.848c0,0.22,0.041,0.425,0.123,0.613c0.082,0.189,0.21,0.332,0.385,0.429
		c0.174,0.097,0.366,0.146,0.577,0.146c0.149,0,0.289-0.023,0.419-0.07s0.248-0.119,0.354-0.216s0.198-0.217,0.278-0.36
		c0.081-0.144,0.138-0.306,0.172-0.485c0.033-0.181,0.059-0.406,0.076-0.678C163.825,64.027,163.84,63.705,163.852,63.333z"/>
	<path fill="#FD9436" d="M168.783,66.919c0.045-0.438,0.076-0.806,0.094-1.102c0.03-0.468,0.056-1.008,0.078-1.619
		c0.022-0.612,0.038-1.192,0.047-1.743c0.285,0.006,0.499,0.009,0.642,0.009c0.131,0,0.343-0.003,0.637-0.009
		c-0.04,0.51-0.071,0.995-0.096,1.458c-0.023,0.462-0.041,0.991-0.053,1.588c-0.012,0.598-0.017,1.069-0.017,1.418
		c-0.267-0.006-0.48-0.009-0.642-0.009C169.321,66.91,169.091,66.913,168.783,66.919z M169.024,61.691
		c0.012-0.301,0.018-0.532,0.018-0.693v-0.14c0.266,0.006,0.482,0.009,0.649,0.009c0.228,0,0.44-0.003,0.636-0.009
		c-0.009,0.072-0.015,0.156-0.018,0.25l-0.021,0.583c-0.223-0.006-0.428-0.009-0.614-0.009
		C169.486,61.683,169.27,61.686,169.024,61.691z"/>
	<path fill="#FD9436" d="M173.936,66.919c0.066-0.664,0.123-1.41,0.168-2.238s0.07-1.569,0.076-2.226
		c0.27,0.006,0.485,0.009,0.646,0.009c0.19,0,0.393-0.003,0.605-0.009l-0.049,0.746c0.091-0.128,0.171-0.23,0.239-0.307
		c0.069-0.076,0.157-0.15,0.264-0.224c0.107-0.073,0.221-0.132,0.343-0.176c0.121-0.044,0.257-0.079,0.408-0.105
		c0.15-0.026,0.308-0.039,0.472-0.039c0.261,0,0.51,0.032,0.748,0.099c0.239,0.065,0.432,0.17,0.577,0.313
		c0.146,0.144,0.243,0.3,0.29,0.47s0.07,0.35,0.07,0.54c0,0.079-0.005,0.204-0.013,0.377l-0.091,1.918
		c-0.012,0.267-0.02,0.55-0.021,0.852c-0.232-0.006-0.43-0.009-0.594-0.009c-0.223,0-0.447,0.003-0.673,0.009
		c0.023-0.255,0.053-0.698,0.089-1.332c0.035-0.634,0.053-1.053,0.053-1.258c0-0.23-0.037-0.416-0.11-0.557
		c-0.072-0.141-0.186-0.247-0.34-0.32c-0.153-0.073-0.319-0.11-0.497-0.11c-0.176,0-0.34,0.034-0.491,0.102
		c-0.152,0.067-0.284,0.165-0.395,0.294c-0.117,0.132-0.208,0.294-0.272,0.487c-0.067,0.204-0.117,0.542-0.148,1.014
		c-0.03,0.418-0.054,0.979-0.071,1.681c-0.226-0.006-0.429-0.009-0.61-0.009C174.424,66.91,174.199,66.913,173.936,66.919z"/>
	<path fill="#FD9436" d="M186.491,65.923c-0.038,0.173-0.092,0.482-0.162,0.931c-0.316,0.066-0.582,0.112-0.799,0.136
		s-0.435,0.035-0.654,0.035c-0.383,0-0.727-0.038-1.029-0.114s-0.568-0.216-0.796-0.419c-0.229-0.203-0.396-0.452-0.505-0.747
		s-0.162-0.605-0.162-0.93c0-0.359,0.063-0.708,0.188-1.046s0.302-0.613,0.528-0.829c0.228-0.215,0.485-0.366,0.775-0.455
		c0.289-0.09,0.592-0.134,0.908-0.134c0.298,0,0.582,0.037,0.852,0.111c0.269,0.074,0.495,0.196,0.678,0.366
		c0.183,0.169,0.323,0.373,0.422,0.61c0.098,0.238,0.146,0.503,0.146,0.795c0,0.138-0.015,0.279-0.044,0.426l-3.217,0.004
		c-0.006,0.108-0.009,0.194-0.009,0.259c0,0.196,0.033,0.376,0.101,0.54s0.166,0.303,0.294,0.417
		c0.129,0.114,0.283,0.198,0.461,0.252c0.179,0.055,0.354,0.081,0.527,0.081c0.201,0,0.42-0.021,0.655-0.065
		C185.887,66.103,186.167,66.028,186.491,65.923z M183.656,64.149l2.054,0.005c0-0.141-0.004-0.243-0.013-0.311
		s-0.029-0.144-0.06-0.229s-0.072-0.162-0.125-0.228s-0.114-0.12-0.185-0.164c-0.07-0.043-0.151-0.077-0.243-0.101
		c-0.093-0.022-0.191-0.034-0.297-0.034c-0.122,0-0.242,0.019-0.357,0.057s-0.222,0.093-0.318,0.166
		c-0.097,0.072-0.175,0.154-0.234,0.245c-0.061,0.09-0.104,0.177-0.134,0.26S183.686,64.01,183.656,64.149z"/>
	<path fill="#FD9436" d="M194.869,66.919c-0.243-0.006-0.432-0.009-0.566-0.009c-0.146,0-0.349,0.003-0.606,0.009l0.039-0.764
		c-0.129,0.167-0.239,0.296-0.331,0.387c-0.092,0.09-0.206,0.175-0.343,0.252c-0.136,0.077-0.282,0.135-0.44,0.173
		s-0.322,0.058-0.491,0.058c-0.281,0-0.545-0.052-0.79-0.153c-0.246-0.103-0.455-0.247-0.628-0.433
		c-0.172-0.186-0.3-0.407-0.382-0.663c-0.081-0.256-0.122-0.522-0.122-0.801c0-0.383,0.072-0.757,0.219-1.121
		s0.347-0.659,0.601-0.885c0.255-0.225,0.543-0.385,0.864-0.479c0.321-0.093,0.666-0.14,1.035-0.14c0.266,0,0.566,0.024,0.903,0.074
		c0.021-0.38,0.032-0.779,0.032-1.198v-0.299c0.275,0.007,0.486,0.009,0.633,0.009c0.19,0,0.404-0.002,0.642-0.009
		c-0.064,0.744-0.125,1.755-0.183,3.035C194.897,65.243,194.869,66.229,194.869,66.919z M193.784,63.259
		c-0.219-0.059-0.43-0.088-0.632-0.088c-0.23,0-0.452,0.032-0.662,0.097c-0.211,0.064-0.397,0.174-0.56,0.329
		c-0.163,0.155-0.288,0.354-0.376,0.597s-0.132,0.478-0.132,0.702c0,0.226,0.041,0.432,0.121,0.619s0.205,0.335,0.375,0.443
		s0.361,0.162,0.575,0.162c0.161,0,0.307-0.028,0.438-0.086c0.132-0.057,0.252-0.145,0.36-0.263
		c0.107-0.119,0.199-0.271,0.274-0.459c0.074-0.188,0.128-0.436,0.16-0.746C193.748,64.338,193.767,63.902,193.784,63.259z"/>
</g>
<g>
	<polygon fill="#FD9436" points="37.216,19.041 43.869,16.884 47.438,11.589 41.21,13.237 	"/>
	
		<rect x="48.377" y="11.293" transform="matrix(0.8081 -0.589 0.589 0.8081 1.5355 31.0851)" fill="#FD9436" width="0.201" height="3.786"/>
	<path fill="#FD9436" d="M49.429,14.492c-0.201,0.147-0.17,0.531,0.069,0.859c0.239,0.328,0.596,0.475,0.797,0.328
		c0.2-0.146,0.169-0.531-0.071-0.859C49.987,14.493,49.63,14.346,49.429,14.492z M50.062,15.358c-0.092,0.068-0.256,0-0.367-0.15
		c-0.11-0.151-0.124-0.327-0.031-0.395c0.092-0.068,0.256,0,0.365,0.151C50.139,15.116,50.153,15.292,50.062,15.358z"/>
	<path fill="#FD9436" d="M41.259,18.45c0,0,3.638,0.313,5.03-3.667l0.741,1.017c0,0-0.167,4.796-5.03,3.667L41.259,18.45z"/>
</g>
</svg>
